<svg version="1.1" id="Layer_1" xmlns="http://www.w3.org/2000/svg" xmlns:xlink="http://www.w3.org/1999/xlink" x="0px" y="0px" viewBox="0 0 193.6 43.4" style="enable-background:new 0 0 193.6 43.4" xml:space="preserve">
<g id="Layer_2_1_">
	<g id="Layer_1-2" style="fill:#F7A7BB">
		<path d="M24.3,30.8H13.8V12.3h9.7c0.4,0,0.7,0,1.1,0.1c0.4,0.1,0.7,0.2,1.1,0.4c0.4,0.2,0.7,0.4,1,0.6
			c0.3,0.2,0.6,0.5,0.8,0.7c0.4,0.5,0.7,1,0.9,1.6c0.2,0.6,0.3,1.2,0.3,1.8c0,0.7-0.1,1.4-0.4,2.1c-0.3,0.7-0.7,1.3-1.2,1.7
			c0.4,0.2,0.7,0.5,1,0.8c0.3,0.3,0.5,0.7,0.8,1.1c0.2,0.4,0.4,0.8,0.5,1.2c0.1,0.4,0.2,0.8,0.2,1.2c0,0.7-0.1,1.4-0.4,2
			c-0.3,0.6-0.6,1.2-1.1,1.6c-0.5,0.5-1,0.9-1.6,1.1C25.7,30.7,25,30.9,24.3,30.8z M22,16h-3.3v3.8H22c1,0,1.9-0.9,1.9-1.9
			C23.9,16.9,23,16,22,16z M22.2,23.2h-3.5v3.8h3.5c1,0,1.9-0.8,1.9-1.9c0,0,0,0,0,0c0-0.5-0.2-1-0.5-1.3
			C23.2,23.4,22.7,23.2,22.2,23.2z"></path>
		<path d="M34,30.8V12.3h5.1v14h9.8v4.6L34,30.8z"></path>
		<polygon points="62.9,12.3 58.5,12.3 51.6,30.8 56.9,30.8 60.7,19.1 64.5,30.8 69.7,30.8 		"></polygon>
		<path d="M75.2,30.4c-1.4-0.7-2.6-1.6-3.5-2.8l3.9-3.2c0.5,0.6,1.1,1.1,1.7,1.5c0.7,0.4,1.4,0.5,2.1,0.5
			c0.6,0,1.3-0.1,1.9-0.4c0.6-0.3,1.1-0.6,1.5-1.1c0.4-0.4,0.8-1,1-1.5c0.2-0.6,0.4-1.2,0.4-1.9c0-0.6-0.1-1.2-0.4-1.8
			c-0.2-0.6-0.6-1.1-1-1.5c-0.4-0.4-0.9-0.8-1.5-1.1c-0.6-0.3-1.2-0.4-1.9-0.4c-1.1,0-2.1,0.4-2.9,1l-3.8-3.3c0.9-0.8,2-1.5,3.2-2
			c1.1-0.5,2.4-0.7,3.6-0.7c1.3,0,2.6,0.3,3.8,0.8c1.2,0.5,2.2,1.2,3.1,2.1c0.9,0.9,1.6,2,2.1,3.1c1,2.4,1,5.2,0,7.6
			c-0.5,1.2-1.2,2.2-2.1,3.1c-0.9,0.9-1.9,1.6-3.1,2.1c-1.2,0.5-2.5,0.8-3.8,0.8C78,31.4,76.5,31.1,75.2,30.4z"></path>
		<path d="M101.4,21.1l7.3,9.8h-6l-5.1-6.2v6.2h-5.1V12.3h5.1v6.2l5.1-6.2h6.3L101.4,21.1z"></path>
		<path d="M121.6,25.1h-3.4v5.8h-5V12.3h8.3c0.9,0,1.7,0.2,2.6,0.5c0.8,0.3,1.5,0.7,2.2,1.3c0.6,0.5,1.1,1.2,1.5,2
			c0.4,0.8,0.6,1.6,0.6,2.5c0,0.9-0.2,1.8-0.6,2.6c-0.4,0.8-0.9,1.5-1.5,2.1c-0.6,0.6-1.4,1.1-2.2,1.4
			C123.4,24.9,122.5,25.1,121.6,25.1z M121.2,16.4h-2.9v4h2.9c0.3,0,0.6-0.1,0.8-0.2c0.5-0.2,0.9-0.6,1.1-1.1c0.2-0.5,0.2-1.1,0-1.6
			c-0.1-0.2-0.3-0.4-0.5-0.6c-0.2-0.2-0.4-0.3-0.7-0.4C121.8,16.5,121.5,16.4,121.2,16.4z"></path>
		<path d="M132.4,30.8V12.3h5v18.5H132.4z"></path>
		<path d="M141.7,30.8V12.3h5v10l6.5-10h4.9v18.5h-4.9v-9.9l-6.4,9.9L141.7,30.8z"></path>
		<path d="M171.9,21.1l7.3,9.8h-6l-5.1-6.2v6.2h-5.1V12.3h5.1v6.2l5.1-6.2h6.3L171.9,21.1z"></path>
		<path d="M193.6,43.4H0V0h193.6V43.4z M4,39.4h185.6V4H4V39.4z"></path>
	</g>
</g>
</svg>