


<svg height="100%" stroke-miterlimit="10" style="fill:black;fill-rule:nonzero;clip-rule:evenodd;stroke-linecap:round;stroke-linejoin:round" version="1.1" viewBox="0 0 1321.3 2807.71" width="100%" xml:space="preserve" xmlns="http://www.w3.org/2000/svg" xmlns:xlink="http://www.w3.org/1999/xlink">
<defs></defs>
<g id="layer1">
<path d="M1320.14 2169.92C1291.48 2159.48 1263.4 2149.33 1235.39 2139.03C1064.01 2076.1 892.698 2013.09 721.244 1950.37C713.467 1947.49 711.091 1943.89 711.091 1935.68C711.307 1454.01 711.307 972.34 711.163 490.671C711.163 483.614 712.891 478.933 718.723 474.324C915.741 319.145 1112.61 163.749 1309.56 8.3531C1312.66 5.90477 1315.82 3.67249 1320.22 0.432086C1320.22 723.836 1320.22 1445.94 1320.22 2169.85L1320.14 2169.92Z" fill="black" fill-rule="evenodd" opacity="1" stroke="none"></path>
<path d="M0.0720149 2169.92C0.0720149 1446.45 0.0720149 724.124 0.0720149 8.65173e-05C19.6585 15.41 38.0929 29.8119 56.3832 44.2857C236.838 186.648 417.293 329.082 597.892 471.228C606.389 477.925 609.486 484.622 609.486 495.495C609.198 973.924 609.198 1452.35 609.558 1930.85C609.558 1942.88 606.461 1948.06 594.94 1952.24C400.371 2023.17 206.018 2094.6 11.5935 2165.89C7.99304 2167.26 4.32057 2168.48 0.144039 2169.92L0.0720149 2169.92Z" fill="black" fill-rule="evenodd" opacity="1" stroke="none"></path>
<path d="M94.8361 2385.02C94.8361 2428.94 94.8361 2471.71 94.8361 2515.64C113.846 2515.64 132.137 2516 150.427 2515.28C153.092 2515.14 157.7 2509.95 157.772 2507C158.276 2469.84 158.348 2432.61 157.772 2395.46C157.7 2391.93 152.371 2385.66 149.203 2385.52C131.273 2384.58 113.342 2385.02 94.8361 2385.02ZM168.069 2807.71L170.086 2807.71C187.584 2807.49 202.778 2801.95 216.676 2792.3C236.478 2778.55 247.784 2760.04 247.424 2734.84C246.919 2697.25 247.424 2659.66 247.207 2622.07C247.063 2591.25 236.046 2566.41 206.954 2552C230.573 2534.79 239.431 2520.03 239.791 2493.39C240.367 2454.72 240.583 2416.05 239.791 2377.38C238.998 2335.69 211.707 2309.84 170.23 2309.84C120.687 2309.84 71.2171 2309.84 21.6748 2309.84C17.7863 2309.84 13.9698 2309.84 9.50522 2309.84C9.50522 2476.25 9.50522 2641.22 9.50522 2807.42C63.2241 2807.42 115.575 2806.99 167.925 2807.64L168.069 2807.71ZM95.4122 2731.45C114.927 2731.45 133.289 2731.02 151.651 2731.6C162.381 2731.96 165.909 2726.77 165.909 2717.34C165.909 2684.14 166.125 2650.87 165.765 2617.68C165.621 2604.36 156.26 2592.26 144.378 2591.47C128.32 2590.39 112.118 2591.18 95.3402 2591.18C95.3402 2638.13 95.3402 2684.14 95.3402 2731.45L95.4122 2731.45Z" fill="black" fill-rule="evenodd" opacity="1" stroke="none"></path>
<path d="M624.031 2386.89C600.124 2386.89 578.162 2386.53 556.271 2387.1C548.422 2387.32 544.893 2384.51 542.229 2377.31C533.948 2355.13 524.875 2333.24 515.802 2310.34C614.31 2310.34 711.379 2310.34 810.319 2310.34C807.151 2319.78 804.342 2328.49 801.318 2337.13C796.637 2350.74 791.381 2364.21 787.276 2378.03C785.116 2385.38 781.372 2387.25 774.171 2387.1C751.848 2386.67 729.525 2386.96 706.122 2386.96C706.122 2527.31 706.122 2666.72 706.122 2806.85C678.47 2806.85 651.899 2806.85 624.104 2806.85C624.104 2667.58 624.104 2528.31 624.104 2386.96L624.031 2386.89Z" fill="black" fill-rule="evenodd" opacity="1" stroke="none"></path>
<path d="M1094.04 2643.96C1120.97 2643.96 1147.54 2643.96 1174.97 2643.96C1175.26 2647.35 1175.69 2650.44 1175.69 2653.54C1175.77 2676.65 1175.91 2699.84 1175.62 2722.95C1175.55 2730.52 1178.14 2734.69 1186.06 2734.69C1199.46 2734.69 1212.78 2734.62 1226.17 2734.62C1234.53 2734.62 1237.91 2729.58 1237.98 2722.16C1238.2 2692.85 1238.7 2663.62 1237.62 2634.31C1237.41 2628.12 1232.44 2620.34 1227.25 2616.38C1212.99 2605.44 1197.94 2595.35 1182.39 2586.28C1154.67 2570.15 1128.74 2552.15 1109.16 2526.23C1098.5 2512.04 1092.16 2496.92 1092.74 2478.27C1093.82 2443.56 1093.03 2408.85 1093.03 2374.14C1093.03 2338.5 1121.83 2309.84 1157.91 2309.77C1189.38 2309.69 1220.84 2309.77 1252.24 2309.77C1293.86 2309.77 1317.41 2331.44 1320.72 2372.92C1321.01 2376.88 1320.94 2380.84 1320.94 2384.8C1320.94 2410.07 1320.94 2435.35 1320.94 2461.49C1294.22 2461.49 1268.08 2461.49 1240.79 2461.49C1240.5 2458.68 1240 2455.58 1239.93 2452.49C1239.71 2434.41 1239.49 2416.34 1239.57 2398.27C1239.57 2390.78 1236.47 2386.38 1228.98 2386.24C1214.15 2386.02 1199.31 2385.52 1184.55 2386.6C1181.31 2386.82 1175.98 2392.86 1175.91 2396.32C1175.19 2422.32 1174.33 2448.46 1176.27 2474.31C1176.77 2481.36 1185.63 2489.36 1192.54 2494.11C1214.51 2509.3 1237.48 2522.99 1259.94 2537.53C1279.75 2550.42 1299.19 2564.25 1310.85 2585.2C1316.4 2595.14 1320.29 2607.38 1320.58 2618.61C1321.08 2635.9 1321.22 2653.18 1321.22 2670.53L1321.22 2680.76C1321.22 2700.92 1321.01 2721.01 1320.94 2741.17C1320.86 2777.18 1291.84 2806.77 1255.77 2807.21C1221.42 2807.64 1187.07 2807.49 1152.72 2807.21C1125.14 2806.99 1093.89 2776.96 1093.32 2749.24C1092.6 2715.61 1093.17 2681.98 1093.17 2648.35C1093.17 2646.99 1093.6 2645.62 1093.96 2643.74L1094.04 2643.96Z" fill="black" fill-rule="evenodd" opacity="1" stroke="none"></path>
</g>
</svg>
