<svg xmlns="http://www.w3.org/2000/svg" width="250" height="158.892" viewBox="0 0 66.145832 42.040176"><g><path fill="#ffffff" d="m 36.575832,42.00674 c -0.14915,-0.0121 -0.66778,-0.0541 -1.1525,-0.0932 -3.97923,-0.32144 -6.57591,-0.98333 -9.33131,-2.3786 -3.7212,-1.88431 -5.63201,-4.38702 -5.9512,-7.79462 -0.17382,-1.85554 -0.0851,-3.14862 0.43734,-6.36616 0.49627,-3.05712 0.55552,-3.38765 0.95069,-5.30301 0.53082,-2.57272 1.00738,-5.36856 1.92732,-11.30658 0.11265,-0.7271 0.28169,-1.81011 0.37565,-2.4067 0.094,-0.59659 0.214,-1.40504 0.26676,-1.79655 0.0528,-0.39151 0.15815,-1.06884 0.23424,-1.50517 0.0761,-0.43634 0.18702,-1.1213 0.24654,-1.52214 0.12972,-0.87365 0.21157,-1.08782 0.51247,-1.34102 l 0.22894,-0.19263 1.72936,0.0602 c 2.22922,0.0777 7.86682,0.0776 9.83451,-1.6e-4 L 38.413752,0 l 0.24213,0.2126 c 0.41652,0.36571 0.43179,0.47374 0.22817,1.61559 -0.0985,0.55237 -0.26843,1.5077 -0.37765,2.12292 -0.41702,2.34922 -0.68925,3.86853 -0.88066,4.9151 -0.40484,2.21355 -0.82624,4.57398 -1.01653,5.69388 -0.10778,0.63433 -0.30599,1.794 -0.44049,2.57701 -0.13448,0.78302 -0.28595,1.72876 -0.33661,2.10163 -0.0506,0.37287 -0.18341,1.25758 -0.29502,1.96602 -0.43463,2.75878 -0.51115,3.51009 -0.51093,5.01678 2.1e-4,1.25261 0.0179,1.48812 0.14786,1.95995 0.29914,1.08659 0.71474,1.68916 1.53152,2.2205 1.13279,0.73692 3.36899,1.06589 5.0372,0.74104 1.5221,-0.2964 2.45573,-0.78511 3.33682,-1.74666 0.553,-0.60348 0.87961,-1.10584 1.35898,-2.09012 0.85953,-1.76482 1.12557,-2.95239 2.84774,-12.71142 0.18682,-1.0586 0.8517,-5.10821 1.02403,-6.23707 0.0769,-0.50338 0.1984,-1.28131 0.27011,-1.72876 0.0717,-0.44744 0.20863,-1.33216 0.30426,-1.96603 0.23817,-1.57854 0.5537,-3.41034 0.63453,-3.68355 0.10704,-0.36187 0.39954,-0.81135 0.56478,-0.86788 0.0838,-0.0286 3.09627,-0.0458 6.69445,-0.0381 3.59817,0.008 6.60973,0.0139 6.69233,0.0137 0.22459,-5.1e-4 0.61797,0.37785 0.66755,0.64216 0.0431,0.2295 -0.10356,1.33966 -0.28224,2.13704 -0.0543,0.24236 -0.1588,0.79149 -0.23219,1.22029 -0.41525,2.42543 -0.69528,4.02371 -0.87901,5.01679 -0.11382,0.61522 -0.29577,1.63722 -0.40432,2.2711 -0.33444,1.9527 -0.67751,3.88328 -0.88545,4.98286 -0.10929,0.57796 -0.35317,1.96315 -0.54195,3.07821 -0.18878,1.11508 -0.35503,2.0465 -0.36946,2.06987 -0.0217,0.0352 -0.35307,2.51257 -0.48107,3.5974 -0.0198,0.16779 -0.0794,0.51862 -0.13231,0.77963 -0.053,0.261 -0.17559,0.90166 -0.27251,1.42368 -0.41646,2.24341 -0.98516,4.19392 -1.55201,5.32301 -1.42508,2.83862 -3.22176,4.73168 -6.47972,6.42209 -4.03591,2.09406 -8.56275,2.86054 -11.71389,2.92812 -0.61845,0.0638 -4.63243,0.0844 -5.33636,0.0272 z M 0.64488234,41.23802 c -0.6467,-0.10779 -0.7864,-0.66015 -0.51109,-2.0208 0.20154,-0.99607 1.04881996,-5.78373 1.62796996,-9.19914 0.6585,-3.88332 1.17265,-6.96951 1.32143,-7.93194 0.098,-0.63389 0.26767,-1.70163 0.37705,-2.3728 0.1094,-0.67116 0.3519,-2.28806 0.53891,-3.59309 0.18699,-1.30504 0.40126,-2.78465 0.47615,-3.28803 0.11123,-0.74775 0.38881,-2.8738 0.57531,-4.40662 0.0204,-0.16778 0.11179,-0.88471 0.20309,-1.59317 0.0914,-0.70844 0.21332,-1.82196 0.27121,-2.47448 0.0579,-0.65252 0.1337,-1.35419 0.16847,-1.55926 0.0348,-0.20508 0.098,-0.73896 0.14056,-1.18641 0.0876,-0.9207 0.22375,-1.29413 0.54013,-1.48103 0.19488,-0.11511 0.33401,-0.11796 2.41011,-0.0494 2.5002797,0.0827 5.8609297,0.0872 8.9448497,0.0121 1.15589,-0.0282 2.20418,-0.0285 2.32953,-7.7e-4 0.27772,0.0615 0.5995,0.35636 0.65067,0.59625 0.0208,0.0974 -0.004,0.40572 -0.0557,0.68538 -0.0513,0.27964 -0.18924,1.04232 -0.30648,1.69485 -0.11724,0.65251 -0.26234,1.44571 -0.32249,1.76265 -0.38414,2.02463 -0.65039,3.54356 -1.24188,7.08449 -0.29274,1.75248 -0.59779,3.65919 -0.67791,4.23713 -0.15607,1.12584 -0.18847,1.33275 -0.44585,2.84737 -0.0919,0.54066 -0.2447,1.57791 -0.33962,2.30501 -0.0949,0.72709 -0.18595,1.36774 -0.20229,1.42366 -0.0442,0.15123 -0.43113,2.86604 -0.57495,4.03378 -0.14057,1.14138 -0.309,2.37324 -0.40788,2.98293 -0.0708,0.43681 -0.21863,1.55652 -0.37134,2.81348 -0.0521,0.42879 -0.17108,1.37452 -0.26439,2.1016 -0.0933,0.7271 -0.23332,1.91689 -0.31112,2.64399 -0.0778,0.72709 -0.1546,1.36774 -0.17069,1.42366 -0.016,0.056 -0.0604,0.49165 -0.0985,0.96824 -0.0716,0.89531 -0.1419,1.12388 -0.42843,1.3915 l -0.16746,0.15639 -6.7370397,0.0131 c -3.70539,0.007 -6.82856996,-0.002 -6.94042996,-0.0208 z"></path></g></svg>